# xmcd
#
# Track frame offsets:
#	150
#	13548
#	29856
#	35494
#	50018
#	67668
#	83757
#	98285
#	111356
#
# Disc length: 1706 seconds
#
# Revision: 1
# Processed by: cddbd v1.5.2PL0 Copyright (c) Steve Scherf et al.
# Submitted via: audiograbber 1.83.01
#
DISCID=6906a809
DTITLE=Van Gurk - Weihnachten
DYEAR=2014
DGENRE=weihnachtslieder
TTITLE0=Kana braucht den Sänta Klaus
TTITLE1=Rudi des oide Rindviech
TTITLE2=Morgen lieber Weihnachtsmann
TTITLE3=in de Zent
TTITLE4=Es wird jetzt glei bumpern
TTITLE5=Ihr Kinderlein schleichts eich
TTITLE6=Kling Glöckchen
TTITLE7=Warum
TTITLE8=Zieg nie dir schuach aus
EXTD=
EXTT0=
EXTT1=
EXTT2=
EXTT3=
EXTT4=
EXTT5=
EXTT6=
EXTT7=
EXTT8=
PLAYORDER=
